<?xml version="1.0" encoding="UTF-8"?>
<svg width="24" height="24" viewBox="0 0 24 24" fill="none" xmlns="http://www.w3.org/2000/svg">
    <!-- Database cylinders -->
    <path d="M5 8c0 1.1 3.1 2 7 2s7-.9 7-2M5 8v8c0 1.1 3.1 2 7 2s7-.9 7-2V8" stroke="#000000" stroke-width="1"/>
    <path d="M5 12c0 1.1 3.1 2 7 2s7-.9 7-2" stroke="#000000" stroke-width="1" stroke-opacity="0.4"/>
    <!-- Top ellipse -->
    <path d="M19 8c0-1.1-3.1-2-7-2s-7 .9-7 2 3.1 2 7 2 7-.9 7-2z" stroke="#000000" stroke-width="1"/>
</svg>
